<svg xmlns="http://www.w3.org/2000/svg" width="256" height="256" viewBox="0 0 100 100"><rect width="100" height="100" rx="50" fill="#bf700f"></rect><path fill="#fff" d="M28.58 30.53L28.58 30.53Q39.80 30.53 45.22 35.45Q50.63 40.38 50.63 49.56L50.63 49.56Q50.63 55.55 47.97 60.04Q45.30 64.52 40.24 67.00Q35.18 69.47 28.08 69.47L28.08 69.47Q26.76 69.47 24.29 69.39Q21.81 69.30 19.94 69.30L19.94 69.30Q17.36 69.30 14.88 69.33Q12.41 69.36 10.92 69.47L10.92 69.47L10.92 68.37Q12.63 68.26 13.48 67.93Q14.33 67.60 14.63 66.61Q14.94 65.62 14.94 63.64L14.94 63.64L14.94 36.36Q14.94 34.32 14.63 33.36Q14.33 32.40 13.48 32.04Q12.63 31.68 10.92 31.63L10.92 31.63L10.92 30.53Q12.41 30.59 14.88 30.67Q17.36 30.75 19.83 30.70L19.83 30.70Q21.81 30.64 24.34 30.59Q26.87 30.53 28.58 30.53ZM28.96 31.52L28.96 31.52Q26.43 31.52 25.66 32.45Q24.89 33.39 24.89 36.25L24.89 36.25L24.89 63.75Q24.89 66.61 25.69 67.55Q26.49 68.48 29.02 68.48L29.02 68.48Q33.20 68.48 35.67 66.31Q38.15 64.14 39.22 59.95Q40.29 55.77 40.29 49.78L40.29 49.78Q40.29 40.54 37.63 36.03Q34.96 31.52 28.96 31.52ZM89.08 30.53L89.08 30.53Q88.86 33.55 88.78 36.36Q88.69 39.16 88.69 40.65L88.69 40.65Q88.69 41.86 88.75 42.91Q88.80 43.95 88.86 44.72L88.86 44.72L87.59 44.72Q86.49 39.83 84.95 36.99Q83.41 34.16 81.46 32.98Q79.51 31.80 77.25 31.80L77.25 31.80L76.59 31.80L76.59 63.20Q76.59 65.45 77.06 66.55Q77.53 67.66 78.82 68.01Q80.11 68.37 82.59 68.37L82.59 68.37L82.59 69.47Q80.77 69.41 77.72 69.36Q74.67 69.30 71.37 69.30L71.37 69.30Q68.12 69.30 65.26 69.36Q62.40 69.41 60.64 69.47L60.64 69.47L60.64 68.37Q63.12 68.37 64.44 68.01Q65.76 67.66 66.20 66.55Q66.64 65.45 66.64 63.20L66.64 63.20L66.64 31.80L66.03 31.80Q63.72 31.80 61.80 32.98Q59.87 34.16 58.33 36.96Q56.79 39.77 55.64 44.72L55.64 44.72L54.37 44.72Q54.48 43.95 54.51 42.91Q54.54 41.86 54.54 40.65L54.54 40.65Q54.54 39.16 54.46 36.36Q54.37 33.55 54.15 30.53L54.15 30.53Q56.74 30.59 59.85 30.64Q62.95 30.70 66.03 30.70Q69.11 30.70 71.64 30.70L71.64 30.70Q74.17 30.70 77.28 30.70Q80.39 30.70 83.47 30.64Q86.55 30.59 89.08 30.53Z"></path></svg>