<?xml version="1.0" encoding="UTF-8"?><svg xmlns="http://www.w3.org/2000/svg" xmlns:xlink="http://www.w3.org/1999/xlink" width="1500" zoomAndPan="magnify" viewBox="0 0 1500 299.999988" height="299.999988" preserveAspectRatio="xMidYMid meet" version="1.0"><path fill="rgb(85.099792%, 85.099792%, 85.099792%)" d="M 88.507812 48.992188 L 0.00390625 -2.109375 L 88.507812 -53.207031 Z M 88.507812 48.992188 " fill-opacity="1" fill-rule="nonzero"/><path fill="rgb(74.899292%, 53.729248%, 14.118958%)" d="M 88.507812 151.191406 L 0.00390625 100.09375 L 88.507812 48.992188 Z M 88.507812 151.191406 " fill-opacity="1" fill-rule="nonzero"/><path fill="rgb(74.899292%, 43.919373%, 5.879211%)" d="M 0.605469 -2.105469 L 89.109375 48.992188 L 0.605469 100.09375 Z M 0.605469 -2.105469 " fill-opacity="1" fill-rule="nonzero"/><path fill="rgb(94.898987%, 75.689697%, 68.238831%)" d="M -0.00390625 100.09375 L 88.503906 151.191406 L -0.00390625 202.292969 Z M -0.00390625 100.09375 " fill-opacity="1" fill-rule="nonzero"/><path fill="rgb(85.099792%, 55.688477%, 45.098877%)" d="M 88.507812 253.390625 L 0.00390625 202.292969 L 88.507812 151.191406 Z M 88.507812 253.390625 " fill-opacity="1" fill-rule="nonzero"/><path fill="rgb(74.899292%, 53.729248%, 14.118958%)" d="M 0.605469 202.292969 L 89.109375 253.394531 L 0.605469 304.492188 Z M 0.605469 202.292969 " fill-opacity="1" fill-rule="nonzero"/><path fill="rgb(85.099792%, 85.099792%, 85.099792%)" d="M 88.507812 355.59375 L 0.00390625 304.492188 L 88.507812 253.390625 Z M 88.507812 355.59375 " fill-opacity="1" fill-rule="nonzero"/><path fill="rgb(74.899292%, 43.919373%, 5.879211%)" d="M 88.503906 -53.207031 L 177.007812 -2.105469 L 88.503906 48.992188 Z M 88.503906 -53.207031 " fill-opacity="1" fill-rule="nonzero"/><path fill="rgb(74.899292%, 53.729248%, 14.118958%)" d="M 177.011719 100.09375 L 88.507812 48.992188 L 177.011719 -2.109375 Z M 177.011719 100.09375 " fill-opacity="1" fill-rule="nonzero"/><path fill="rgb(94.898987%, 75.689697%, 68.238831%)" d="M 88.503906 48.992188 L 177.007812 100.09375 L 88.503906 151.191406 Z M 88.503906 48.992188 " fill-opacity="1" fill-rule="nonzero"/><path fill="rgb(85.099792%, 55.688477%, 45.098877%)" d="M 177.011719 202.292969 L 88.507812 151.191406 L 177.011719 100.09375 Z M 177.011719 202.292969 " fill-opacity="1" fill-rule="nonzero"/><path fill="rgb(85.099792%, 85.099792%, 85.099792%)" d="M 88.503906 151.191406 L 177.007812 202.292969 L 88.503906 253.394531 Z M 88.503906 151.191406 " fill-opacity="1" fill-rule="nonzero"/><path fill="rgb(94.898987%, 75.689697%, 68.238831%)" d="M 177.011719 304.492188 L 88.507812 253.390625 L 177.011719 202.292969 Z M 177.011719 304.492188 " fill-opacity="1" fill-rule="nonzero"/><path fill="rgb(74.899292%, 53.729248%, 14.118958%)" d="M 88.503906 253.394531 L 177.007812 304.492188 L 88.503906 355.59375 Z M 88.503906 253.394531 " fill-opacity="1" fill-rule="nonzero"/><path fill="rgb(85.099792%, 85.099792%, 85.099792%)" d="M 265.519531 48.992188 L 177.011719 -2.109375 L 265.519531 -53.207031 Z M 265.519531 48.992188 " fill-opacity="1" fill-rule="nonzero"/><path fill="rgb(94.898987%, 75.689697%, 68.238831%)" d="M 177.007812 -2.105469 L 265.511719 48.992188 L 177.007812 100.09375 Z M 177.007812 -2.105469 " fill-opacity="1" fill-rule="nonzero"/><path fill="rgb(85.099792%, 85.099792%, 85.099792%)" d="M 177.007812 100.09375 L 265.511719 151.191406 L 177.007812 202.292969 Z M 177.007812 100.09375 " fill-opacity="1" fill-rule="nonzero"/><path fill="rgb(85.099792%, 55.688477%, 45.098877%)" d="M 265.519531 151.191406 L 177.011719 100.09375 L 265.519531 48.992188 Z M 265.519531 151.191406 " fill-opacity="1" fill-rule="nonzero"/><path fill="rgb(94.898987%, 75.689697%, 68.238831%)" d="M 265.519531 253.390625 L 177.011719 202.292969 L 265.519531 151.191406 Z M 265.519531 253.390625 " fill-opacity="1" fill-rule="nonzero"/><path fill="rgb(85.099792%, 55.688477%, 45.098877%)" d="M 177.007812 202.292969 L 265.511719 253.394531 L 177.007812 304.492188 Z M 177.007812 202.292969 " fill-opacity="1" fill-rule="nonzero"/><path fill="rgb(74.899292%, 53.729248%, 14.118958%)" d="M 265.519531 355.59375 L 177.011719 304.492188 L 265.519531 253.390625 Z M 265.519531 355.59375 " fill-opacity="1" fill-rule="nonzero"/><path fill="rgb(94.898987%, 75.689697%, 68.238831%)" d="M 265.511719 -53.207031 L 354.019531 -2.105469 L 265.511719 48.992188 Z M 265.511719 -53.207031 " fill-opacity="1" fill-rule="nonzero"/><path fill="rgb(85.099792%, 55.688477%, 45.098877%)" d="M 354.023438 100.09375 L 265.519531 48.992188 L 354.023438 -2.109375 Z M 354.023438 100.09375 " fill-opacity="1" fill-rule="nonzero"/><path fill="rgb(85.099792%, 85.099792%, 85.099792%)" d="M 265.511719 48.992188 L 354.019531 100.09375 L 265.511719 151.191406 Z M 265.511719 48.992188 " fill-opacity="1" fill-rule="nonzero"/><path fill="rgb(85.099792%, 55.688477%, 45.098877%)" d="M 265.511719 151.191406 L 354.019531 202.292969 L 265.511719 253.394531 Z M 265.511719 151.191406 " fill-opacity="1" fill-rule="nonzero"/><path fill="rgb(74.899292%, 53.729248%, 14.118958%)" d="M 354.023438 303.300781 L 265.519531 252.199219 L 354.023438 201.101562 Z M 354.023438 303.300781 " fill-opacity="1" fill-rule="nonzero"/><path fill="rgb(85.099792%, 85.099792%, 85.099792%)" d="M 265.511719 252.203125 L 354.019531 303.300781 L 265.511719 354.402344 Z M 265.511719 252.203125 " fill-opacity="1" fill-rule="nonzero"/><path fill="rgb(74.899292%, 43.919373%, 5.879211%)" d="M 354.023438 202.292969 L 265.519531 151.191406 L 354.023438 100.09375 Z M 354.023438 202.292969 " fill-opacity="1" fill-rule="nonzero"/><path fill="rgb(74.899292%, 53.729248%, 14.118958%)" d="M 442.527344 100.09375 L 354.023438 48.992188 L 442.527344 -2.109375 Z M 442.527344 100.09375 " fill-opacity="1" fill-rule="nonzero"/><path fill="rgb(74.899292%, 43.919373%, 5.879211%)" d="M 354.015625 -53.207031 L 442.523438 -2.105469 L 354.015625 48.992188 Z M 354.015625 -53.207031 " fill-opacity="1" fill-rule="nonzero"/><path fill="rgb(94.898987%, 75.689697%, 68.238831%)" d="M 354.015625 48.992188 L 442.523438 100.09375 L 354.015625 151.191406 Z M 354.015625 48.992188 " fill-opacity="1" fill-rule="nonzero"/><path fill="rgb(85.099792%, 55.688477%, 45.098877%)" d="M 442.527344 202.292969 L 354.023438 151.191406 L 442.527344 100.09375 Z M 442.527344 202.292969 " fill-opacity="1" fill-rule="nonzero"/><path fill="rgb(74.899292%, 53.729248%, 14.118958%)" d="M 354.015625 151.191406 L 442.523438 202.292969 L 354.015625 253.394531 Z M 354.015625 151.191406 " fill-opacity="1" fill-rule="nonzero"/><path fill="rgb(85.099792%, 85.099792%, 85.099792%)" d="M 442.527344 304.492188 L 354.023438 253.390625 L 442.527344 202.292969 Z M 442.527344 304.492188 " fill-opacity="1" fill-rule="nonzero"/><path fill="rgb(94.898987%, 75.689697%, 68.238831%)" d="M 354.015625 253.394531 L 442.523438 304.492188 L 354.015625 355.59375 Z M 354.015625 253.394531 " fill-opacity="1" fill-rule="nonzero"/><path fill="rgb(74.899292%, 53.729248%, 14.118958%)" d="M 531.03125 48.992188 L 442.527344 -2.109375 L 531.03125 -53.207031 Z M 531.03125 48.992188 " fill-opacity="1" fill-rule="nonzero"/><path fill="rgb(94.898987%, 75.689697%, 68.238831%)" d="M 442.523438 -2.105469 L 531.027344 48.992188 L 442.523438 100.09375 Z M 442.523438 -2.105469 " fill-opacity="1" fill-rule="nonzero"/><path fill="rgb(85.099792%, 55.688477%, 45.098877%)" d="M 531.03125 151.191406 L 442.527344 100.09375 L 531.03125 48.992188 Z M 531.03125 151.191406 " fill-opacity="1" fill-rule="nonzero"/><path fill="rgb(85.099792%, 85.099792%, 85.099792%)" d="M 442.523438 100.09375 L 531.027344 151.191406 L 442.523438 202.292969 Z M 442.523438 100.09375 " fill-opacity="1" fill-rule="nonzero"/><path fill="rgb(94.898987%, 75.689697%, 68.238831%)" d="M 531.03125 253.390625 L 442.527344 202.292969 L 531.03125 151.191406 Z M 531.03125 253.390625 " fill-opacity="1" fill-rule="nonzero"/><path fill="rgb(74.899292%, 53.729248%, 14.118958%)" d="M 442.523438 202.292969 L 531.027344 253.394531 L 442.523438 304.492188 Z M 442.523438 202.292969 " fill-opacity="1" fill-rule="nonzero"/><path fill="rgb(74.899292%, 43.919373%, 5.879211%)" d="M 531.03125 355.59375 L 442.527344 304.492188 L 531.03125 253.390625 Z M 531.03125 355.59375 " fill-opacity="1" fill-rule="nonzero"/><path fill="rgb(94.898987%, 75.689697%, 68.238831%)" d="M 531.027344 -53.207031 L 619.53125 -2.105469 L 531.027344 48.992188 Z M 531.027344 -53.207031 " fill-opacity="1" fill-rule="nonzero"/><path fill="rgb(85.099792%, 85.099792%, 85.099792%)" d="M 531.027344 48.992188 L 619.53125 100.09375 L 531.027344 151.191406 Z M 531.027344 48.992188 " fill-opacity="1" fill-rule="nonzero"/><path fill="rgb(85.099792%, 55.688477%, 45.098877%)" d="M 619.539062 100.09375 L 531.03125 48.992188 L 619.539062 -2.109375 Z M 619.539062 100.09375 " fill-opacity="1" fill-rule="nonzero"/><path fill="rgb(94.898987%, 75.689697%, 68.238831%)" d="M 619.539062 202.292969 L 531.03125 151.191406 L 619.539062 100.09375 Z M 619.539062 202.292969 " fill-opacity="1" fill-rule="nonzero"/><path fill="rgb(85.099792%, 55.688477%, 45.098877%)" d="M 531.027344 151.191406 L 619.53125 202.292969 L 531.027344 253.394531 Z M 531.027344 151.191406 " fill-opacity="1" fill-rule="nonzero"/><path fill="rgb(74.899292%, 53.729248%, 14.118958%)" d="M 619.539062 304.492188 L 531.03125 253.390625 L 619.539062 202.292969 Z M 619.539062 304.492188 " fill-opacity="1" fill-rule="nonzero"/><path fill="rgb(85.099792%, 85.099792%, 85.099792%)" d="M 531.027344 252.203125 L 619.53125 303.300781 L 531.027344 354.402344 Z M 531.027344 252.203125 " fill-opacity="1" fill-rule="nonzero"/><path fill="rgb(85.099792%, 55.688477%, 45.098877%)" d="M 708.042969 48.992188 L 619.539062 -2.109375 L 708.042969 -53.207031 Z M 708.042969 48.992188 " fill-opacity="1" fill-rule="nonzero"/><path fill="rgb(85.099792%, 85.099792%, 85.099792%)" d="M 619.53125 -2.105469 L 708.039062 48.992188 L 619.53125 100.09375 Z M 619.53125 -2.105469 " fill-opacity="1" fill-rule="nonzero"/><path fill="rgb(85.099792%, 55.688477%, 45.098877%)" d="M 619.53125 100.09375 L 708.039062 151.191406 L 619.53125 202.292969 Z M 619.53125 100.09375 " fill-opacity="1" fill-rule="nonzero"/><path fill="rgb(74.899292%, 53.729248%, 14.118958%)" d="M 708.042969 252.199219 L 619.539062 201.101562 L 708.042969 150 Z M 708.042969 252.199219 " fill-opacity="1" fill-rule="nonzero"/><path fill="rgb(85.099792%, 85.099792%, 85.099792%)" d="M 619.53125 201.101562 L 708.039062 252.203125 L 619.53125 303.300781 Z M 619.53125 201.101562 " fill-opacity="1" fill-rule="nonzero"/><path fill="rgb(85.099792%, 55.688477%, 45.098877%)" d="M 708.042969 354.402344 L 619.539062 303.300781 L 708.042969 252.199219 Z M 708.042969 354.402344 " fill-opacity="1" fill-rule="nonzero"/><path fill="rgb(74.899292%, 43.919373%, 5.879211%)" d="M 708.042969 151.191406 L 619.539062 100.09375 L 708.042969 48.992188 Z M 708.042969 151.191406 " fill-opacity="1" fill-rule="nonzero"/><path fill="rgb(85.099792%, 85.099792%, 85.099792%)" d="M 792.265625 48.992188 L 703.761719 -2.109375 L 792.265625 -53.207031 Z M 792.265625 48.992188 " fill-opacity="1" fill-rule="nonzero"/><path fill="rgb(74.899292%, 53.729248%, 14.118958%)" d="M 792.265625 151.191406 L 703.761719 100.09375 L 792.265625 48.992188 Z M 792.265625 151.191406 " fill-opacity="1" fill-rule="nonzero"/><path fill="rgb(74.899292%, 43.919373%, 5.879211%)" d="M 704.363281 -2.105469 L 792.867188 48.992188 L 704.363281 100.09375 Z M 704.363281 -2.105469 " fill-opacity="1" fill-rule="nonzero"/><path fill="rgb(94.898987%, 75.689697%, 68.238831%)" d="M 703.753906 100.09375 L 792.257812 151.191406 L 703.753906 202.292969 Z M 703.753906 100.09375 " fill-opacity="1" fill-rule="nonzero"/><path fill="rgb(85.099792%, 55.688477%, 45.098877%)" d="M 792.265625 253.390625 L 703.761719 202.292969 L 792.265625 151.191406 Z M 792.265625 253.390625 " fill-opacity="1" fill-rule="nonzero"/><path fill="rgb(74.899292%, 53.729248%, 14.118958%)" d="M 704.363281 202.292969 L 792.867188 253.394531 L 704.363281 304.492188 Z M 704.363281 202.292969 " fill-opacity="1" fill-rule="nonzero"/><path fill="rgb(85.099792%, 85.099792%, 85.099792%)" d="M 792.265625 355.59375 L 703.761719 304.492188 L 792.265625 253.390625 Z M 792.265625 355.59375 " fill-opacity="1" fill-rule="nonzero"/><path fill="rgb(74.899292%, 43.919373%, 5.879211%)" d="M 792.261719 -53.207031 L 880.765625 -2.105469 L 792.261719 48.992188 Z M 792.261719 -53.207031 " fill-opacity="1" fill-rule="nonzero"/><path fill="rgb(74.899292%, 53.729248%, 14.118958%)" d="M 880.769531 100.09375 L 792.265625 48.992188 L 880.769531 -2.109375 Z M 880.769531 100.09375 " fill-opacity="1" fill-rule="nonzero"/><path fill="rgb(94.898987%, 75.689697%, 68.238831%)" d="M 792.261719 48.992188 L 880.765625 100.09375 L 792.261719 151.191406 Z M 792.261719 48.992188 " fill-opacity="1" fill-rule="nonzero"/><path fill="rgb(85.099792%, 55.688477%, 45.098877%)" d="M 880.769531 202.292969 L 792.265625 151.191406 L 880.769531 100.09375 Z M 880.769531 202.292969 " fill-opacity="1" fill-rule="nonzero"/><path fill="rgb(85.099792%, 85.099792%, 85.099792%)" d="M 792.261719 151.191406 L 880.765625 202.292969 L 792.261719 253.394531 Z M 792.261719 151.191406 " fill-opacity="1" fill-rule="nonzero"/><path fill="rgb(94.898987%, 75.689697%, 68.238831%)" d="M 880.769531 304.492188 L 792.265625 253.390625 L 880.769531 202.292969 Z M 880.769531 304.492188 " fill-opacity="1" fill-rule="nonzero"/><path fill="rgb(74.899292%, 53.729248%, 14.118958%)" d="M 792.261719 253.394531 L 880.765625 304.492188 L 792.261719 355.59375 Z M 792.261719 253.394531 " fill-opacity="1" fill-rule="nonzero"/><path fill="rgb(85.099792%, 85.099792%, 85.099792%)" d="M 969.273438 48.992188 L 880.769531 -2.109375 L 969.273438 -53.207031 Z M 969.273438 48.992188 " fill-opacity="1" fill-rule="nonzero"/><path fill="rgb(94.898987%, 75.689697%, 68.238831%)" d="M 880.765625 -2.105469 L 969.269531 48.992188 L 880.765625 100.09375 Z M 880.765625 -2.105469 " fill-opacity="1" fill-rule="nonzero"/><path fill="rgb(85.099792%, 85.099792%, 85.099792%)" d="M 880.765625 100.09375 L 969.269531 151.191406 L 880.765625 202.292969 Z M 880.765625 100.09375 " fill-opacity="1" fill-rule="nonzero"/><path fill="rgb(85.099792%, 55.688477%, 45.098877%)" d="M 969.273438 151.191406 L 880.769531 100.09375 L 969.273438 48.992188 Z M 969.273438 151.191406 " fill-opacity="1" fill-rule="nonzero"/><path fill="rgb(94.898987%, 75.689697%, 68.238831%)" d="M 969.273438 253.390625 L 880.769531 202.292969 L 969.273438 151.191406 Z M 969.273438 253.390625 " fill-opacity="1" fill-rule="nonzero"/><path fill="rgb(85.099792%, 55.688477%, 45.098877%)" d="M 880.765625 202.292969 L 969.269531 253.394531 L 880.765625 304.492188 Z M 880.765625 202.292969 " fill-opacity="1" fill-rule="nonzero"/><path fill="rgb(74.899292%, 53.729248%, 14.118958%)" d="M 969.273438 355.59375 L 880.769531 304.492188 L 969.273438 253.390625 Z M 969.273438 355.59375 " fill-opacity="1" fill-rule="nonzero"/><path fill="rgb(94.898987%, 75.689697%, 68.238831%)" d="M 969.269531 -53.207031 L 1057.773438 -2.105469 L 969.269531 48.992188 Z M 969.269531 -53.207031 " fill-opacity="1" fill-rule="nonzero"/><path fill="rgb(85.099792%, 55.688477%, 45.098877%)" d="M 1057.78125 100.09375 L 969.273438 48.992188 L 1057.78125 -2.109375 Z M 1057.78125 100.09375 " fill-opacity="1" fill-rule="nonzero"/><path fill="rgb(85.099792%, 85.099792%, 85.099792%)" d="M 969.269531 48.992188 L 1057.773438 100.09375 L 969.269531 151.191406 Z M 969.269531 48.992188 " fill-opacity="1" fill-rule="nonzero"/><path fill="rgb(85.099792%, 55.688477%, 45.098877%)" d="M 969.269531 151.191406 L 1057.773438 202.292969 L 969.269531 253.394531 Z M 969.269531 151.191406 " fill-opacity="1" fill-rule="nonzero"/><path fill="rgb(74.899292%, 53.729248%, 14.118958%)" d="M 1057.78125 303.300781 L 969.273438 252.199219 L 1057.78125 201.101562 Z M 1057.78125 303.300781 " fill-opacity="1" fill-rule="nonzero"/><path fill="rgb(85.099792%, 85.099792%, 85.099792%)" d="M 969.269531 252.203125 L 1057.773438 303.300781 L 969.269531 354.402344 Z M 969.269531 252.203125 " fill-opacity="1" fill-rule="nonzero"/><path fill="rgb(74.899292%, 43.919373%, 5.879211%)" d="M 1057.78125 202.292969 L 969.273438 151.191406 L 1057.78125 100.09375 Z M 1057.78125 202.292969 " fill-opacity="1" fill-rule="nonzero"/><path fill="rgb(74.899292%, 53.729248%, 14.118958%)" d="M 1146.285156 100.09375 L 1057.78125 48.992188 L 1146.285156 -2.109375 Z M 1146.285156 100.09375 " fill-opacity="1" fill-rule="nonzero"/><path fill="rgb(74.899292%, 43.919373%, 5.879211%)" d="M 1057.773438 -53.207031 L 1146.28125 -2.105469 L 1057.773438 48.992188 Z M 1057.773438 -53.207031 " fill-opacity="1" fill-rule="nonzero"/><path fill="rgb(94.898987%, 75.689697%, 68.238831%)" d="M 1057.773438 48.992188 L 1146.28125 100.09375 L 1057.773438 151.191406 Z M 1057.773438 48.992188 " fill-opacity="1" fill-rule="nonzero"/><path fill="rgb(85.099792%, 55.688477%, 45.098877%)" d="M 1146.285156 202.292969 L 1057.78125 151.191406 L 1146.285156 100.09375 Z M 1146.285156 202.292969 " fill-opacity="1" fill-rule="nonzero"/><path fill="rgb(74.899292%, 53.729248%, 14.118958%)" d="M 1057.773438 151.191406 L 1146.28125 202.292969 L 1057.773438 253.394531 Z M 1057.773438 151.191406 " fill-opacity="1" fill-rule="nonzero"/><path fill="rgb(85.099792%, 85.099792%, 85.099792%)" d="M 1146.285156 304.492188 L 1057.78125 253.390625 L 1146.285156 202.292969 Z M 1146.285156 304.492188 " fill-opacity="1" fill-rule="nonzero"/><path fill="rgb(94.898987%, 75.689697%, 68.238831%)" d="M 1057.773438 253.394531 L 1146.28125 304.492188 L 1057.773438 355.59375 Z M 1057.773438 253.394531 " fill-opacity="1" fill-rule="nonzero"/><path fill="rgb(74.899292%, 53.729248%, 14.118958%)" d="M 1234.789062 48.992188 L 1146.285156 -2.109375 L 1234.789062 -53.207031 Z M 1234.789062 48.992188 " fill-opacity="1" fill-rule="nonzero"/><path fill="rgb(94.898987%, 75.689697%, 68.238831%)" d="M 1146.28125 -2.105469 L 1234.785156 48.992188 L 1146.28125 100.09375 Z M 1146.28125 -2.105469 " fill-opacity="1" fill-rule="nonzero"/><path fill="rgb(85.099792%, 55.688477%, 45.098877%)" d="M 1234.789062 151.191406 L 1146.285156 100.09375 L 1234.789062 48.992188 Z M 1234.789062 151.191406 " fill-opacity="1" fill-rule="nonzero"/><path fill="rgb(85.099792%, 85.099792%, 85.099792%)" d="M 1146.28125 100.09375 L 1234.785156 151.191406 L 1146.28125 202.292969 Z M 1146.28125 100.09375 " fill-opacity="1" fill-rule="nonzero"/><path fill="rgb(94.898987%, 75.689697%, 68.238831%)" d="M 1234.789062 253.390625 L 1146.285156 202.292969 L 1234.789062 151.191406 Z M 1234.789062 253.390625 " fill-opacity="1" fill-rule="nonzero"/><path fill="rgb(74.899292%, 53.729248%, 14.118958%)" d="M 1146.28125 202.292969 L 1234.785156 253.394531 L 1146.28125 304.492188 Z M 1146.28125 202.292969 " fill-opacity="1" fill-rule="nonzero"/><path fill="rgb(74.899292%, 43.919373%, 5.879211%)" d="M 1234.789062 355.59375 L 1146.285156 304.492188 L 1234.789062 253.390625 Z M 1234.789062 355.59375 " fill-opacity="1" fill-rule="nonzero"/><path fill="rgb(94.898987%, 75.689697%, 68.238831%)" d="M 1234.785156 -53.207031 L 1323.289062 -2.105469 L 1234.785156 48.992188 Z M 1234.785156 -53.207031 " fill-opacity="1" fill-rule="nonzero"/><path fill="rgb(85.099792%, 85.099792%, 85.099792%)" d="M 1234.785156 48.992188 L 1323.289062 100.09375 L 1234.785156 151.191406 Z M 1234.785156 48.992188 " fill-opacity="1" fill-rule="nonzero"/><path fill="rgb(85.099792%, 55.688477%, 45.098877%)" d="M 1323.296875 100.09375 L 1234.789062 48.992188 L 1323.296875 -2.109375 Z M 1323.296875 100.09375 " fill-opacity="1" fill-rule="nonzero"/><path fill="rgb(94.898987%, 75.689697%, 68.238831%)" d="M 1323.296875 202.292969 L 1234.789062 151.191406 L 1323.296875 100.09375 Z M 1323.296875 202.292969 " fill-opacity="1" fill-rule="nonzero"/><path fill="rgb(85.099792%, 55.688477%, 45.098877%)" d="M 1234.785156 151.191406 L 1323.289062 202.292969 L 1234.785156 253.394531 Z M 1234.785156 151.191406 " fill-opacity="1" fill-rule="nonzero"/><path fill="rgb(74.899292%, 53.729248%, 14.118958%)" d="M 1323.296875 304.492188 L 1234.789062 253.390625 L 1323.296875 202.292969 Z M 1323.296875 304.492188 " fill-opacity="1" fill-rule="nonzero"/><path fill="rgb(85.099792%, 85.099792%, 85.099792%)" d="M 1234.785156 252.203125 L 1323.289062 303.300781 L 1234.785156 354.402344 Z M 1234.785156 252.203125 " fill-opacity="1" fill-rule="nonzero"/><path fill="rgb(85.099792%, 55.688477%, 45.098877%)" d="M 1411.800781 48.992188 L 1323.296875 -2.109375 L 1411.800781 -53.207031 Z M 1411.800781 48.992188 " fill-opacity="1" fill-rule="nonzero"/><path fill="rgb(85.099792%, 85.099792%, 85.099792%)" d="M 1323.289062 -2.105469 L 1411.796875 48.992188 L 1323.289062 100.09375 Z M 1323.289062 -2.105469 " fill-opacity="1" fill-rule="nonzero"/><path fill="rgb(85.099792%, 55.688477%, 45.098877%)" d="M 1323.289062 100.09375 L 1411.796875 151.191406 L 1323.289062 202.292969 Z M 1323.289062 100.09375 " fill-opacity="1" fill-rule="nonzero"/><path fill="rgb(74.899292%, 53.729248%, 14.118958%)" d="M 1411.800781 252.199219 L 1323.296875 201.101562 L 1411.800781 150 Z M 1411.800781 252.199219 " fill-opacity="1" fill-rule="nonzero"/><path fill="rgb(85.099792%, 85.099792%, 85.099792%)" d="M 1323.289062 201.101562 L 1411.796875 252.203125 L 1323.289062 303.300781 Z M 1323.289062 201.101562 " fill-opacity="1" fill-rule="nonzero"/><path fill="rgb(85.099792%, 55.688477%, 45.098877%)" d="M 1411.800781 354.402344 L 1323.296875 303.300781 L 1411.800781 252.199219 Z M 1411.800781 354.402344 " fill-opacity="1" fill-rule="nonzero"/><path fill="rgb(74.899292%, 43.919373%, 5.879211%)" d="M 1411.800781 151.191406 L 1323.296875 100.09375 L 1411.800781 48.992188 Z M 1411.800781 151.191406 " fill-opacity="1" fill-rule="nonzero"/><path fill="rgb(85.099792%, 85.099792%, 85.099792%)" d="M 1499.394531 48.992188 L 1410.890625 -2.109375 L 1499.394531 -53.207031 Z M 1499.394531 48.992188 " fill-opacity="1" fill-rule="nonzero"/><path fill="rgb(74.899292%, 53.729248%, 14.118958%)" d="M 1499.394531 151.191406 L 1410.890625 100.09375 L 1499.394531 48.992188 Z M 1499.394531 151.191406 " fill-opacity="1" fill-rule="nonzero"/><path fill="rgb(74.899292%, 43.919373%, 5.879211%)" d="M 1411.492188 -2.105469 L 1499.996094 48.992188 L 1411.492188 100.09375 Z M 1411.492188 -2.105469 " fill-opacity="1" fill-rule="nonzero"/><path fill="rgb(94.898987%, 75.689697%, 68.238831%)" d="M 1410.882812 100.09375 L 1499.390625 151.191406 L 1410.882812 202.292969 Z M 1410.882812 100.09375 " fill-opacity="1" fill-rule="nonzero"/><path fill="rgb(85.099792%, 55.688477%, 45.098877%)" d="M 1499.394531 253.390625 L 1410.890625 202.292969 L 1499.394531 151.191406 Z M 1499.394531 253.390625 " fill-opacity="1" fill-rule="nonzero"/><path fill="rgb(74.899292%, 53.729248%, 14.118958%)" d="M 1411.492188 202.292969 L 1499.996094 253.394531 L 1411.492188 304.492188 Z M 1411.492188 202.292969 " fill-opacity="1" fill-rule="nonzero"/><path fill="rgb(85.099792%, 85.099792%, 85.099792%)" d="M 1499.394531 355.59375 L 1410.890625 304.492188 L 1499.394531 253.390625 Z M 1499.394531 355.59375 " fill-opacity="1" fill-rule="nonzero"/></svg>